<?xml version="1.0" standalone="no"?>
<!DOCTYPE svg PUBLIC "-//W3C//DTD SVG 20010904//EN"
 "http://www.w3.org/TR/2001/REC-SVG-20010904/DTD/svg10.dtd">
<svg version="1.0" xmlns="http://www.w3.org/2000/svg"
 width="1428.000000pt" height="1428.000000pt" viewBox="0 0 1428.000000 1428.000000"
 preserveAspectRatio="xMidYMid meet">
<metadata>
Created by potrace 1.16, written by Peter Selinger 2001-2019
</metadata>
<g transform="translate(0.000000,1428.000000) scale(0.100000,-0.100000)"
fill="#000000" stroke="none">
<path d="M9054 11819 c-1246 -57 -2447 -636 -3282 -1584 -246 -280 -496 -645
-645 -942 -31 -61 -34 -72 -20 -77 9 -4 17 -5 18 -4 0 2 34 64 74 138 544
1002 1433 1767 2510 2162 784 286 1655 352 2497 187 668 -130 1329 -427 1889
-847 680 -510 1216 -1213 1528 -2003 174 -439 271 -854 312 -1329 21 -232 16
-682 -9 -900 -94 -825 -394 -1595 -879 -2253 -264 -359 -609 -707 -972 -979
-693 -520 -1556 -844 -2425 -908 -174 -13 -551 -13 -716 0 -1012 79 -1954 478
-2722 1153 -252 221 -580 589 -742 832 -18 28 -35 52 -36 54 -2 2 -10 -2 -19
-9 -17 -14 -17 -13 129 -210 602 -809 1513 -1431 2491 -1699 838 -230 1720
-227 2552 9 546 155 1069 416 1533 766 1175 885 1870 2278 1870 3746 0 1934
-1175 3665 -2975 4378 -352 140 -742 239 -1137 290 -138 17 -540 42 -623 38
-16 0 -107 -5 -201 -9z"/>
<path d="M9410 11220 c-116 -21 -189 -128 -178 -264 12 -142 102 -225 234
-214 72 6 129 46 163 113 35 67 37 189 4 251 -20 37 -84 103 -101 104 -4 1
-25 4 -47 8 -22 4 -56 5 -75 2z m109 -78 c46 -34 65 -79 66 -157 0 -93 -24
-141 -87 -173 -40 -20 -52 -22 -85 -13 -133 36 -155 268 -33 349 41 28 97 25
139 -6z"/>
<path d="M8678 11146 c-59 -11 -109 -23 -111 -26 -4 -5 3 -50 53 -315 28 -150
26 -146 58 -139 15 4 29 8 31 10 2 2 -5 48 -16 103 l-20 99 84 17 c74 16 83
20 83 40 0 12 -2 24 -5 27 -3 3 -36 -1 -73 -8 -103 -20 -98 -22 -112 51 -7 36
-10 69 -6 72 3 3 43 12 88 20 46 8 84 16 87 18 8 9 -10 55 -22 54 -6 -1 -60
-11 -119 -23z"/>
<path d="M10025 11150 c-10 -30 1 -38 61 -46 32 -4 58 -12 61 -20 5 -13 -3
-58 -49 -274 -27 -130 -27 -123 10 -131 28 -6 33 -4 37 15 8 34 75 374 75 379
0 2 30 -2 67 -9 54 -12 68 -12 75 -2 24 38 12 44 -151 77 -87 17 -163 31 -169
31 -6 0 -13 -9 -17 -20z"/>
<path d="M10752 10919 c-75 -38 -142 -152 -142 -243 0 -112 78 -196 194 -212
57 -8 142 29 179 78 34 44 64 113 72 164 26 160 -154 286 -303 213z m150 -44
c120 -29 103 -257 -25 -335 -87 -53 -197 16 -197 124 0 110 105 238 180 221 8
-2 27 -7 42 -10z"/>
<path d="M11455 10526 c-87 -40 -144 -129 -145 -224 0 -65 24 -115 80 -166 39
-35 131 -86 155 -86 8 0 121 154 133 181 4 9 -107 89 -122 89 -6 0 -17 -9 -23
-19 -11 -17 -8 -22 22 -41 19 -12 35 -26 35 -32 0 -7 -41 -74 -66 -106 -4 -6
-69 30 -92 52 -36 32 -52 70 -52 124 0 62 46 136 105 169 69 39 139 24 216
-45 48 -43 50 -44 70 -26 19 17 19 18 -18 57 -50 52 -144 97 -203 97 -26 0
-66 -10 -95 -24z"/>
<path d="M11983 9954 c-162 -155 -163 -155 -147 -180 9 -13 20 -24 24 -24 4 0
40 30 80 67 l73 67 28 -34 c39 -46 37 -73 -11 -150 -22 -36 -40 -70 -40 -76 0
-12 38 -50 44 -43 28 33 89 148 93 177 5 37 5 37 49 34 53 -5 99 24 120 75 23
54 4 105 -68 180 -34 35 -66 63 -72 63 -6 0 -84 -70 -173 -156z m214 54 c62
-68 53 -135 -20 -161 -24 -9 -76 14 -106 47 l-25 26 54 55 c30 30 59 55 65 55
7 0 21 -10 32 -22z"/>
<path d="M12455 9391 c-227 -59 -235 -64 -199 -101 12 -13 23 -12 85 4 39 10
72 16 73 14 2 -1 21 -31 44 -64 l41 -62 -46 -62 c-45 -61 -46 -63 -30 -88 9
-15 19 -26 22 -25 4 1 74 88 156 193 l149 192 -21 29 c-11 16 -28 29 -37 28
-9 0 -116 -27 -237 -58z"/>
<path d="M8124 9400 c-107 -16 -174 -79 -195 -181 -20 -102 16 -206 89 -256
44 -29 133 -47 200 -39 147 17 221 98 222 242 0 59 -5 81 -28 125 -23 45 -37
58 -82 81 -62 30 -130 39 -206 28z"/>
<path d="M991 9088 c-51 -139 -162 -440 -247 -668 -84 -228 -190 -516 -236
-640 l-83 -225 -60 -1 c-53 -1 -60 -3 -63 -22 -3 -22 -2 -22 198 -22 200 0
201 0 198 21 -3 21 -8 22 -95 20 -72 -2 -93 1 -93 11 0 8 43 132 95 277 52
146 95 266 95 268 0 1 117 3 260 3 143 0 260 -1 260 -3 0 -1 41 -121 90 -266
50 -145 90 -270 90 -278 0 -11 -17 -14 -87 -12 -83 2 -88 1 -91 -19 l-3 -22
426 0 426 0 -3 22 c-3 20 -8 22 -54 19 -32 -1 -54 2 -61 11 -6 7 -45 105 -86
218 -166 451 -331 902 -448 1223 l-123 337 -106 0 -106 0 -93 -252z m95 -580
l110 -333 -229 -3 c-127 -1 -232 0 -234 2 -6 6 230 666 237 666 3 0 55 -150
116 -332z"/>
<path d="M7025 9138 c-126 -31 -233 -57 -237 -58 -5 0 -8 -76 -8 -170 l0 -170
-70 0 c-63 0 -70 -2 -70 -20 0 -18 7 -20 69 -20 l70 0 3 -472 c3 -471 3 -473
27 -533 35 -88 108 -157 197 -185 209 -64 448 -20 544 101 62 79 111 240 79
260 -23 15 -26 11 -39 -50 -17 -79 -59 -159 -103 -195 -51 -41 -137 -49 -172
-16 -49 46 -50 61 -50 590 l0 495 168 3 c158 2 167 4 167 22 0 18 -9 20 -167
22 l-168 3 -5 225 -5 226 -230 -58z"/>
<path d="M3275 9086 c-46 -20 -94 -64 -118 -110 -19 -35 -22 -57 -22 -154 0
-96 -2 -111 -15 -106 -93 39 -139 48 -270 48 -148 0 -232 -15 -325 -59 -161
-77 -249 -244 -225 -431 22 -173 93 -260 264 -324 l28 -10 -76 -50 c-153 -100
-205 -167 -213 -275 -6 -75 22 -135 85 -182 77 -58 117 -65 437 -73 288 -8
343 -15 393 -48 31 -20 52 -70 52 -123 0 -173 -155 -278 -411 -279 -229 0
-329 62 -337 209 -2 36 1 86 6 110 l10 43 -73 34 c-41 19 -80 34 -87 34 -48
-1 -147 -70 -174 -122 -17 -32 -18 -115 -3 -155 15 -41 67 -91 122 -120 113
-57 349 -90 572 -79 330 16 532 113 619 295 30 64 31 71 31 196 -1 148 -14
190 -82 266 -110 122 -267 159 -675 159 -214 0 -248 5 -248 38 0 19 37 58 82
87 24 15 38 16 138 5 333 -35 565 89 616 330 37 174 -20 322 -164 421 -43 31
-50 245 -9 298 23 31 42 40 79 41 72 0 94 -63 33 -99 -48 -28 -47 -61 4 -112
39 -39 61 -46 136 -40 95 8 155 111 126 218 -25 91 -90 133 -203 133 -40 -1
-86 -7 -103 -14z m-375 -376 c10 -5 27 -31 37 -57 16 -42 18 -80 18 -318 0
-257 -1 -272 -22 -318 -27 -58 -60 -74 -116 -57 -28 8 -42 21 -60 53 -21 41
-22 51 -22 312 0 238 2 276 18 318 10 26 28 54 40 62 24 17 79 20 107 5z"/>
<path d="M12970 8850 c-25 -10 -101 -42 -170 -70 -223 -91 -215 -85 -186 -125
13 -18 17 -17 105 20 50 21 93 36 95 34 2 -2 18 -39 36 -81 30 -73 33 -77 53
-67 12 7 23 13 25 14 1 1 -11 37 -28 80 -17 42 -30 78 -28 80 13 12 124 52
130 47 3 -4 21 -42 38 -84 32 -77 42 -86 69 -69 11 7 11 15 2 43 -22 67 -78
192 -87 195 -5 1 -29 -6 -54 -17z"/>
<path d="M5814 8756 c-166 -38 -283 -150 -318 -306 -43 -189 9 -342 147 -433
67 -44 149 -76 325 -126 160 -46 231 -78 255 -115 22 -33 22 -110 0 -147 -59
-100 -333 -119 -479 -33 -86 50 -169 166 -214 299 -10 29 -24 51 -33 53 -15 3
-17 -18 -17 -232 0 -262 1 -267 59 -195 51 62 69 65 159 25 241 -108 531 -76
666 75 133 147 141 430 16 572 -75 85 -167 129 -404 193 -215 59 -261 90 -261
181 0 52 3 57 39 89 49 42 118 58 228 52 66 -3 98 -10 141 -32 72 -35 153
-123 203 -220 22 -44 45 -75 52 -74 7 2 13 6 13 11 -1 4 -1 90 -1 192 0 204
-4 215 -52 145 -33 -48 -60 -51 -140 -19 -139 55 -271 71 -384 45z"/>
<path d="M9635 8754 c-109 -27 -184 -88 -231 -188 l-24 -51 0 113 0 112 -315
0 c-306 0 -315 -1 -315 -20 0 -17 8 -19 73 -22 l72 -3 0 -570 0 -570 -72 -3
c-65 -3 -73 -5 -73 -22 0 -20 9 -20 370 -20 363 0 370 0 370 20 0 18 -7 20
-55 20 l-55 0 0 398 c0 428 4 472 55 571 13 27 43 65 67 85 37 32 48 37 87 34
35 -2 48 -9 65 -31 21 -28 21 -38 24 -543 l3 -514 -51 0 c-43 0 -50 -3 -50
-20 0 -20 7 -20 365 -20 356 0 365 1 365 20 0 17 -8 19 -72 22 l-73 3 -5 470
c-5 442 -6 473 -25 517 -31 72 -80 136 -131 168 -88 55 -244 74 -369 44z"/>
<path d="M10920 8756 c-212 -35 -325 -123 -344 -266 -20 -152 64 -250 214
-250 148 0 232 75 231 205 0 86 -13 115 -50 115 -37 0 -43 9 -44 66 0 64 32
96 107 102 50 4 57 2 80 -23 42 -46 48 -85 53 -346 l5 -246 -174 -6 c-285 -9
-405 -55 -471 -182 -32 -60 -31 -200 2 -273 50 -111 164 -166 346 -167 158 0
242 40 289 140 l19 39 14 -30 c55 -107 202 -165 387 -150 186 14 266 105 283
320 6 73 5 78 -13 74 -15 -3 -20 -15 -25 -63 -13 -128 -47 -195 -99 -195 -19
0 -35 9 -48 25 -19 24 -20 46 -25 403 -3 313 -7 387 -21 436 -43 152 -117 225
-268 261 -90 22 -342 28 -448 11z m248 -868 c-4 -194 -9 -219 -61 -275 -29
-32 -72 -30 -94 4 -15 23 -18 50 -18 173 0 135 2 149 25 195 27 54 72 85 123
85 l29 0 -4 -182z"/>
<path d="M3700 8720 c0 -18 7 -20 75 -20 l75 0 0 -427 c0 -458 5 -516 52 -609
27 -55 95 -119 151 -144 99 -44 262 -48 374 -9 73 25 119 63 156 128 30 53 31
54 38 27 4 -15 11 -56 14 -91 l7 -65 294 0 c285 0 294 1 294 20 0 17 -8 19
-67 22 l-68 3 -3 593 -2 592 -300 0 c-293 0 -300 0 -300 -20 0 -18 7 -20 60
-20 l61 0 -3 -462 c-3 -459 -3 -463 -26 -513 -39 -84 -90 -125 -157 -125 -46
0 -70 25 -84 89 -7 34 -11 224 -11 551 l0 500 -315 0 c-308 0 -315 0 -315 -20z"/>
<path d="M7790 8720 c0 -17 8 -19 73 -22 l72 -3 0 -570 0 -570 -67 -3 c-60 -3
-68 -5 -68 -22 0 -20 10 -20 385 -20 378 0 385 0 385 20 0 18 -7 20 -75 20
l-75 0 0 595 0 595 -315 0 c-306 0 -315 -1 -315 -20z"/>
<path d="M13200 8210 c-14 -4 -88 -22 -165 -40 -216 -50 -230 -55 -233 -76 -6
-47 8 -48 144 -15 71 18 171 42 221 54 95 23 103 29 87 71 -7 17 -16 19 -54 6z"/>
<path d="M12880 7674 c0 -31 3 -33 54 -48 30 -9 61 -16 70 -16 21 0 23 -8 30
-97 l6 -71 -70 -28 c-67 -26 -70 -28 -70 -61 0 -18 5 -33 11 -33 5 0 97 37
202 81 106 45 204 86 220 91 22 8 27 16 27 41 0 18 -4 37 -8 43 -4 6 -45 20
-92 32 -47 12 -151 39 -232 61 l-148 38 0 -33z"/>
<path d="M5870 6741 c-73 -24 -119 -63 -143 -121 -60 -144 -2 -297 126 -335
112 -33 242 -10 305 53 44 44 62 96 62 181 0 147 -79 222 -240 228 -47 1 -96
-1 -110 -6z"/>
<path d="M3822 6648 c3 -21 9 -23 86 -26 l82 -3 0 -859 0 -860 -86 0 c-83 0
-85 -1 -82 -22 l3 -23 495 0 495 0 3 22 c3 22 2 23 -160 25 l-163 3 0 345 0
345 55 2 c370 16 555 69 679 194 129 131 167 379 90 585 -25 67 -102 153 -172
193 -75 43 -207 78 -338 90 -63 6 -311 11 -552 11 l-438 0 3 -22z m856 -43
c73 -31 112 -88 131 -190 17 -89 14 -465 -4 -549 -18 -86 -55 -149 -106 -183
-34 -22 -55 -27 -125 -31 l-84 -5 0 487 0 486 75 0 c46 0 90 -6 113 -15z"/>
<path d="M11238 6482 l-228 -56 0 -168 0 -168 -70 0 c-68 0 -70 -1 -70 -25 0
-24 2 -25 70 -25 l70 0 0 -445 c0 -291 4 -462 11 -497 42 -196 183 -278 458
-266 170 8 272 61 334 175 25 46 57 155 57 196 0 30 -39 21 -46 -10 -32 -148
-90 -230 -175 -253 -82 -22 -129 10 -148 101 -7 32 -11 224 -11 524 l0 475
168 2 c165 3 167 3 170 26 l3 22 -170 0 -171 0 0 225 c0 174 -3 225 -12 224
-7 0 -115 -26 -240 -57z"/>
<path d="M7006 6089 c-304 -74 -461 -293 -460 -639 1 -194 50 -342 151 -449
104 -111 230 -160 428 -168 304 -12 480 88 562 317 28 80 28 96 3 103 -16 4
-22 -5 -40 -58 -27 -82 -65 -140 -129 -197 -62 -56 -124 -78 -218 -78 -137 0
-205 63 -239 219 -20 94 -28 390 -15 549 23 279 77 376 208 376 44 0 57 -4 82
-28 35 -34 47 -87 31 -145 -11 -40 -12 -41 -55 -41 l-44 0 -7 -46 c-21 -145
55 -246 198 -261 151 -15 244 77 243 242 -1 158 -100 266 -286 310 -94 22
-312 19 -413 -6z"/>
<path d="M8338 6100 c-128 -23 -232 -75 -278 -140 -45 -63 -61 -164 -39 -243
42 -153 281 -185 397 -53 35 40 48 100 38 173 -8 59 -11 63 -50 63 -29 0 -34
4 -40 31 -11 57 -6 80 22 108 56 57 159 45 186 -21 24 -57 36 -182 36 -372 l0
-183 -152 -6 c-244 -10 -372 -43 -446 -118 -59 -58 -67 -83 -67 -199 0 -92 3
-111 25 -154 30 -59 77 -99 150 -128 47 -19 76 -22 190 -22 133 -1 136 0 190
30 41 23 63 44 85 82 17 28 33 51 36 52 4 0 12 -14 19 -30 17 -41 82 -95 139
-115 61 -22 240 -31 313 -16 120 25 187 115 209 279 12 87 8 112 -14 112 -9 0
-17 -26 -25 -84 -13 -101 -32 -149 -66 -171 -31 -21 -61 -13 -84 23 -15 23
-18 70 -23 417 -6 426 -8 442 -68 537 -38 60 -97 103 -180 130 -57 18 -93 22
-261 24 -107 1 -216 -1 -242 -6z m269 -852 c-4 -194 -14 -237 -62 -285 -38
-38 -64 -42 -91 -12 -15 17 -19 41 -22 151 -5 164 7 226 53 273 33 32 53 41
103 44 l24 1 -5 -172z"/>
<path d="M10310 6093 c-92 -32 -156 -91 -205 -189 l-24 -49 0 118 -1 117 -310
0 -310 0 0 -25 c0 -24 2 -25 70 -25 l70 0 0 -570 0 -570 -70 0 c-68 0 -70 -1
-70 -25 l0 -25 403 2 402 3 3 23 c3 21 1 22 -93 22 l-96 0 3 403 c4 368 6 408
24 468 50 162 151 261 246 242 39 -8 54 -41 42 -91 -9 -35 -11 -37 -59 -42
-42 -4 -50 -9 -56 -30 -22 -81 4 -179 58 -218 42 -30 115 -46 181 -39 73 8
127 45 161 112 22 42 26 62 25 135 -1 128 -42 201 -139 246 -61 29 -184 32
-255 7z"/>
<path d="M5570 6065 c0 -24 2 -25 75 -25 l75 0 0 -570 0 -570 -70 0 c-68 0
-70 -1 -70 -25 l0 -25 383 2 c374 3 382 3 382 23 0 18 -8 20 -72 23 l-73 3 0
594 0 595 -315 0 -315 0 0 -25z"/>
</g>
</svg>
